<?xml version="1.0" encoding="UTF-8"?>
<svg xmlns="http://www.w3.org/2000/svg" version="1.1" id="Layer_1" x="0px" y="0px" viewBox="0 0 1150 1450" style="enable-background:new 0 0 1150 1450;" xml:space="preserve">
    <style type="text/css">
        .st0{fill:#D1D3D4;}
        .st1{filter:url(#filter-3);}
        .st2{fill-rule:evenodd;clip-rule:evenodd;}
        .st3{fill-rule:evenodd;clip-rule:evenodd;fill:url(#path-2_00000107553961216000030330000013435248771025464970_);}
        .st4{fill:#007AB5;}
        .st5{fill-rule:evenodd;clip-rule:evenodd;fill:#D1D3D4;}
        .st6{fill-rule:evenodd;clip-rule:evenodd;fill:url(#Combined-Shape_00000163756454665923189700000009303569905331320737_);}
    </style>
    <defs>
        <filter filterUnits="objectBoundingBox" height="200%" id="filter-3" width="200%" x="-50%" y="-50%">
            <feOffset dx="0" dy="20" in="SourceAlpha" result="shadowOffsetOuter1"></feOffset>
            <feGaussianBlur in="shadowOffsetOuter1" result="shadowBlurOuter1" stdDeviation="15"></feGaussianBlur>
            <feColorMatrix in="shadowBlurOuter1" type="matrix" values="0 0 0 0 0   0 0 0 0 0   0 0 0 0 0  0 0 0 0.2 0"></feColorMatrix>
        </filter>
    </defs>
    <g>
        <path class="st0" d="M54.3,1409.8c-2.5,0-4.2-0.5-5-1.6s-1.2-2.5-1.2-4.3v-167.4c0-1.8,0.4-3.2,1.2-4.3s2.4-1.6,4.7-1.6h58.9     c15.7,0,28.6,2.4,38.9,7.3c10.3,4.9,18.4,11.3,24.3,19.4c5.9,8.1,10.1,17.5,12.6,28.3s3.6,22.1,3.6,34c0,12.1-1.2,23.5-3.5,34.4     c-2.3,10.9-6.5,20.5-12.4,28.8c-5.9,8.3-14,14.8-24.3,19.7c-10.3,4.9-23.3,7.3-39.1,7.3H54.3z M147.7,1321.5     c0-19.1-3.1-33-9.2-41.8c-6.1-8.8-15.7-13.2-28.6-13.2H90.8v107.5H108c6.1,0,11.6-0.9,16.5-2.8s9-4.9,12.4-9     c3.4-4.1,6.1-9.5,8-16.2C146.8,1339.1,147.7,1331,147.7,1321.5z"></path>
        <path class="st0" d="M332.3,1341.2c0,7.4-0.5,15.2-1.6,23.5c-1.1,8.3-3.8,15.9-8.1,23c-4.3,7-10.8,12.8-19.3,17.4     c-8.6,4.6-20.2,6.9-35,6.9c-14.6,0-26-2.3-34.2-6.9c-8.2-4.6-14.4-10.4-18.5-17.4c-4.1-7-6.7-14.7-7.7-23     c-1-8.3-1.5-16.1-1.5-23.5c0-6.1,0.6-13,1.9-20.8c1.3-7.7,4-15.1,8.2-22c4.2-6.9,10.4-12.7,18.6-17.4c8.2-4.7,19.2-7,33.1-7     c13.9,0,25,2,33.5,6.1c8.5,4.1,14.9,9.3,19.4,15.8c4.5,6.5,7.5,13.7,8.9,21.7C331.6,1325.6,332.3,1333.5,332.3,1341.2z      M290.2,1342.8c0-11.3-1.3-19.8-3.9-25.4c-2.6-5.6-8.4-8.4-17.4-8.4c-8.3,0-13.8,2.9-16.6,8.6c-2.8,5.8-4.2,14.1-4.2,25.1     c0,11.9,1.4,20.5,4.1,25.9c2.7,5.4,8.1,8.1,16.2,8.1c9,0,14.9-2.8,17.7-8.4C288.8,1362.9,290.2,1354.3,290.2,1342.8z"></path>
        <path class="st0" d="M546.1,1408c-0.6,1.2-2.1,1.8-4.5,1.8h-29.7c-2.3,0-3.9-0.5-4.7-1.5c-0.8-1-1.2-2.4-1.2-4.2v-71     c0-8.3-1.3-13.8-3.8-16.5c-2.5-2.7-6.3-4-11.3-4c-3.2,0-7.2,0.9-11.9,2.6c-4.7,1.7-8.7,3.5-12.1,5.3v83.7c0,1.4-0.3,2.7-0.9,3.9     c-0.6,1.2-2.2,1.8-4.7,1.8h-29.7c-2.2,0-3.6-0.5-4.5-1.5c-0.8-1-1.2-2.4-1.2-4.2v-71.8c0-7.6-1.2-12.7-3.7-15.5     c-2.4-2.8-6.1-4.2-11-4.2c-3.3,0-7.2,0.8-11.8,2.4c-4.6,1.6-8.8,3.4-12.6,5.4v83.7c0,1.4-0.4,2.7-1.1,3.9     c-0.7,1.2-2.3,1.8-4.8,1.8h-29.5c-2.1,0-3.6-0.5-4.4-1.5c-0.8-1-1.2-2.4-1.2-4.2v-121.5c0-1.8,0.4-3.2,1.2-4.3     c0.8-1.1,2.3-1.6,4.4-1.6h29.5c2.5,0,4.1,0.6,4.8,1.9c0.7,1.3,1.1,2.6,1.1,4v6.2l0.5,0.3c5.8-4.7,12.1-8.3,18.9-10.9     c6.8-2.6,13.8-3.9,20.8-3.9c8.1,0,15.2,1.5,21.3,4.5c6.1,3,10.6,7.6,13.5,13.9c6.3-5.2,13.5-9.6,21.5-13.1     c8-3.5,16.1-5.3,24.2-5.3c9.5,0,17,1.6,22.3,4.7c5.3,3.2,9.3,7.2,11.9,12.3c2.6,5,4.2,10.7,4.7,17c0.5,6.3,0.8,12.6,0.8,18.9v77     C547,1405.5,546.7,1406.8,546.1,1408z"></path>
        <path class="st0" d="M607.6,1241.3c0,2.5-0.3,5-0.8,7.4c-0.5,2.4-1.6,4.6-3.1,6.5c-1.5,1.9-3.7,3.4-6.5,4.6     c-2.8,1.2-6.4,1.8-10.9,1.8c-4.7,0-8.5-0.6-11.3-1.8c-2.9-1.2-5.1-2.7-6.6-4.7c-1.5-2-2.5-4.1-3-6.5c-0.5-2.3-0.7-4.8-0.7-7.3     c0-5.6,1.4-10.3,4.3-14.2c2.9-3.9,8.6-5.8,17.3-5.8c4.3,0,7.9,0.5,10.7,1.5c2.8,1,5,2.4,6.6,4.2c1.6,1.8,2.7,3.9,3.2,6.3     C607.3,1235.8,607.6,1238.4,607.6,1241.3z M606.2,1403.8c0,1.4-0.3,2.8-0.9,4.1c-0.6,1.3-2.1,1.9-4.5,1.9h-29.7     c-2.3,0-3.9-0.5-4.7-1.6c-0.8-1.1-1.2-2.5-1.2-4.3v-121.5c0-2,0.4-3.5,1.2-4.5c0.8-1,2.4-1.5,4.7-1.5h29.7c2.3,0,3.8,0.7,4.5,2     c0.6,1.4,0.9,2.7,0.9,3.9V1403.8z"></path>
        <path class="st0" d="M665.8,1278.5c5.2-1.6,10.2-2.8,14.8-3.5c4.6-0.7,8.8-1.1,12.6-1.1c11.9,0,21.6,1.7,29,5     c7.4,3.3,13.1,8,17.2,14c4.1,6,6.8,13.2,8.3,21.5c1.4,8.3,2.2,17.4,2.2,27.3c0,10.6-0.8,20.3-2.4,29c-1.6,8.7-4.7,16.2-9.3,22.3     c-4.6,6.1-10.9,10.8-18.9,14.2c-8,3.3-18.4,5-31.2,5c-4.5,0-9.3-0.2-14.3-0.5c-5-0.4-10-0.9-14.8-1.5c-4.9-0.6-9.5-1.4-14-2.4     c-4.5-1-8.5-2.2-11.9-3.6c-3.4-1.4-5.6-3.2-6.6-5.4c-1-2.2-1.5-4.8-1.5-7.8v-165.8c0-1.8,0.4-3.2,1.2-4.3     c0.8-1.1,2.4-1.6,4.7-1.6h29.5c2.5,0,4.1,0.7,4.7,2c0.6,1.3,0.9,2.7,0.9,3.9V1278.5z M707.4,1343.9c0-6.7-0.4-12.2-1.2-16.6     c-0.8-4.4-2-7.9-3.7-10.5c-1.6-2.6-3.7-4.5-6.2-5.7c-2.5-1.2-5.5-1.8-9-1.8c-3.6,0-6.8,0.2-9.5,0.5c-2.7,0.4-6.7,1.2-12,2.4v62.6     c3.1,0.5,6.2,0.9,9.4,1.1c3.2,0.2,6,0.3,8.6,0.3c3.3,0,6.3-0.4,9.2-1.1c2.9-0.7,5.4-2.2,7.6-4.5c2.2-2.2,3.8-5.5,5-9.7     C706.8,1356.8,707.4,1351.1,707.4,1343.9z"></path>
        <path class="st0" d="M885.9,1408.3c-0.8,1-2.4,1.5-4.7,1.5h-29.5c-2.5,0-4.1-0.6-4.7-1.8c-0.6-1.2-0.9-2.5-0.9-3.9v-6.8     c-0.2,0-0.3,0-0.3-0.1c0-0.1-0.1-0.1-0.3-0.1c-6.1,4.7-13.1,8.3-20.9,10.9s-15,3.9-21.5,3.9c-9.5,0-17-1.4-22.3-4.3     c-5.3-2.9-9.3-6.7-11.9-11.5c-2.6-4.8-4.2-10.3-4.9-16.5c-0.6-6.2-0.9-12.7-0.9-19.6v-77.5c0-1.4,0.3-2.8,0.9-4     c0.6-1.3,2.2-1.9,4.7-1.9h29.7c2.2,0,3.6,0.5,4.5,1.6c0.8,1.1,1.2,2.5,1.2,4.3v70.7c0,6.8,1.2,12,3.6,15.5     c2.4,3.5,6.7,5.3,12.8,5.3c2.2,0,4.4-0.3,6.8-0.9c2.3-0.6,4.6-1.3,6.9-2.2c2.2-0.8,4.4-1.7,6.5-2.6c2.1-0.9,3.8-1.6,5.3-2.2     v-83.7c0-1.4,0.3-2.8,0.9-4c0.6-1.3,2.2-1.9,4.7-1.9h29.5c2.3,0,3.9,0.5,4.7,1.6c0.8,1.1,1.2,2.5,1.2,4.3v121.5     C887.1,1405.9,886.7,1407.3,885.9,1408.3z"></path>
        <path class="st0" d="M1011.7,1367.8c0,8.4-1.7,15.5-5,21.1c-3.3,5.7-7.8,10.2-13.4,13.6c-5.6,3.4-11.9,5.9-19,7.4     c-7.1,1.5-14.5,2.3-22.3,2.3c-3.2,0-6.8-0.1-10.5-0.4c-3.8-0.3-7.6-0.7-11.5-1.2c-3.9-0.5-7.6-1.2-11.1-1.9     c-3.5-0.7-6.6-1.5-9.3-2.4c-4.5-1.6-7.4-3.3-8.6-5c-1.3-1.7-1.4-4.3-0.5-7.9l3-12.9c0.5-2.5,1.3-4,2.4-4.6s3.1-0.5,6.2,0     c6.3,1.1,13.1,1.9,20.5,2.6c7.4,0.6,13.4,0.9,18.1,0.9c6.8,0,11.7-0.8,14.6-2.3c2.9-1.5,4.3-4.1,4.3-7.7c0-4-1.1-6.6-3.2-8     c-2.2-1.4-6.1-2.4-11.9-3.1c-7.4-1.1-14.3-2.3-20.7-3.8c-6.4-1.4-12-3.6-16.9-6.5c-4.9-2.9-8.7-6.8-11.5-11.6     c-2.8-4.9-4.2-11.3-4.2-19.2c0-7.2,1.4-13.5,4.2-18.9c2.8-5.4,6.6-9.9,11.4-13.5s10.6-6.3,17.3-8.1c6.7-1.8,14-2.7,21.9-2.7     c3.1,0,6.4,0.1,10.1,0.4c3.7,0.3,7.4,0.6,11.2,1.1c3.8,0.5,7.4,1,10.9,1.8s6.7,1.6,9.6,2.7c3.6,1.3,6.3,2.6,8,3.9     c1.7,1.4,2.1,3.8,1.2,7.2l-3,13.9c-0.7,2.5-1.5,4.1-2.3,4.6s-2.7,0.6-5.8,0.3c-3.1-0.4-6.4-0.8-10-1.2c-3.6-0.4-7.2-0.8-10.7-1.1     c-3.5-0.3-6.8-0.5-9.9-0.7c-3.1-0.2-5.7-0.3-7.8-0.3c-6.8-0.2-11.1,0.6-12.8,2.3c-1.7,1.7-2.6,4-2.6,6.9c0,3.4,1.6,5.6,4.7,6.6     s7.2,1.9,12.1,2.8c7,0.9,13.7,2,20.1,3.4c6.3,1.3,11.9,3.5,16.7,6.6c4.8,3.1,8.6,7.1,11.5,12.3     C1010.2,1352.5,1011.7,1359.3,1011.7,1367.8z"></path>
    </g>
    <g id="Logo-2">
        <g id="Domibus_logo_icon_2">
            <g id="Group-2" transform="translate(94.000000, 111.000000)">
                <g id="D">
                    <g class="st1">
                        <path id="path-2_00000031189956040555802920000018101847568871280815_" class="st2" d="M-53.7,1090.6c0,16.6,13.4,30,30,30         h381.3c372.2,0,615.2-224.3,615.2-605S729.7-86,357.5-86H-23.7c-16.6,0-30,13.4-30,30V1090.6z"></path>
                    </g>
                    <g>

                        <linearGradient id="path-2_00000036958027805921739310000000648800469355834775_" gradientUnits="userSpaceOnUse" x1="1077.3219" y1="1101.0519" x2="1077.3219" y2="1100.0519" gradientTransform="matrix(1026.424 0 0 -1206.558 -1105329.5 1328396.875)">
                            <stop offset="0" style="stop-color:#00A3F2"></stop>
                            <stop offset="1" style="stop-color:#007AB5"></stop>
                        </linearGradient>

                        <path id="path-2_00000026871923290511197900000016478511261401619102_" style="fill-rule:evenodd;clip-rule:evenodd;fill:url(#path-2_00000036958027805921739310000000648800469355834775_);" d="         M-53.7,1090.6c0,16.6,13.4,30,30,30h381.3c372.2,0,615.2-224.3,615.2-605S729.7-86,357.5-86H-23.7c-16.6,0-30,13.4-30,30         V1090.6z"></path>
                    </g>
                </g>
            </g>
        </g>
    </g>
    <g>
        <path class="st4" d="M49.3,1404.8c-2.5,0-4.2-0.5-5-1.6s-1.2-2.5-1.2-4.3v-167.4c0-1.8,0.4-3.2,1.2-4.3s2.4-1.6,4.7-1.6h58.9     c15.7,0,28.6,2.4,38.9,7.3c10.3,4.9,18.4,11.3,24.3,19.4c5.9,8.1,10.1,17.5,12.6,28.3s3.6,22.1,3.6,34c0,12.1-1.2,23.5-3.5,34.4     c-2.3,10.9-6.5,20.5-12.4,28.8c-5.9,8.3-14,14.8-24.3,19.7c-10.3,4.9-23.3,7.3-39.1,7.3H49.3z M142.7,1316.5     c0-19.1-3.1-33-9.2-41.8c-6.1-8.8-15.7-13.2-28.6-13.2H85.8v107.5H103c6.1,0,11.6-0.9,16.5-2.8s9-4.9,12.4-9     c3.4-4.1,6.1-9.5,8-16.2C141.8,1334.1,142.7,1326,142.7,1316.5z"></path>
        <path class="st4" d="M327.3,1336.2c0,7.4-0.5,15.2-1.6,23.5c-1.1,8.3-3.8,15.9-8.1,23c-4.3,7-10.8,12.8-19.3,17.4     c-8.6,4.6-20.2,6.9-35,6.9c-14.6,0-26-2.3-34.2-6.9c-8.2-4.6-14.4-10.4-18.5-17.4c-4.1-7-6.7-14.7-7.7-23     c-1-8.3-1.5-16.1-1.5-23.5c0-6.1,0.6-13,1.9-20.8c1.3-7.7,4-15.1,8.2-22c4.2-6.9,10.4-12.7,18.6-17.4c8.2-4.7,19.2-7,33.1-7     c13.9,0,25,2,33.5,6.1c8.5,4.1,14.9,9.3,19.4,15.8c4.5,6.5,7.5,13.7,8.9,21.7C326.6,1320.6,327.3,1328.5,327.3,1336.2z      M285.2,1337.8c0-11.3-1.3-19.8-3.9-25.4c-2.6-5.6-8.4-8.4-17.4-8.4c-8.3,0-13.8,2.9-16.6,8.6c-2.8,5.8-4.2,14.1-4.2,25.1     c0,11.9,1.4,20.5,4.1,25.9c2.7,5.4,8.1,8.1,16.2,8.1c9,0,14.9-2.8,17.7-8.4C283.8,1357.9,285.2,1349.3,285.2,1337.8z"></path>
        <path class="st4" d="M541.1,1403c-0.6,1.2-2.1,1.8-4.5,1.8h-29.7c-2.3,0-3.9-0.5-4.7-1.5c-0.8-1-1.2-2.4-1.2-4.2v-71     c0-8.3-1.3-13.8-3.8-16.5c-2.5-2.7-6.3-4-11.3-4c-3.2,0-7.2,0.9-11.9,2.6c-4.7,1.7-8.7,3.5-12.1,5.3v83.7c0,1.4-0.3,2.7-0.9,3.9     c-0.6,1.2-2.2,1.8-4.7,1.8h-29.7c-2.2,0-3.6-0.5-4.5-1.5c-0.8-1-1.2-2.4-1.2-4.2v-71.8c0-7.6-1.2-12.7-3.7-15.5     c-2.4-2.8-6.1-4.2-11-4.2c-3.3,0-7.2,0.8-11.8,2.4c-4.6,1.6-8.8,3.4-12.6,5.4v83.7c0,1.4-0.4,2.7-1.1,3.9     c-0.7,1.2-2.3,1.8-4.8,1.8h-29.5c-2.1,0-3.6-0.5-4.4-1.5c-0.8-1-1.2-2.4-1.2-4.2v-121.5c0-1.8,0.4-3.2,1.2-4.3     c0.8-1.1,2.3-1.6,4.4-1.6h29.5c2.5,0,4.1,0.6,4.8,1.9c0.7,1.3,1.1,2.6,1.1,4v6.2l0.5,0.3c5.8-4.7,12.1-8.3,18.9-10.9     c6.8-2.6,13.8-3.9,20.8-3.9c8.1,0,15.2,1.5,21.3,4.5c6.1,3,10.6,7.6,13.5,13.9c6.3-5.2,13.5-9.6,21.5-13.1     c8-3.5,16.1-5.3,24.2-5.3c9.5,0,17,1.6,22.3,4.7c5.3,3.2,9.3,7.2,11.9,12.3c2.6,5,4.2,10.7,4.7,17c0.5,6.3,0.8,12.6,0.8,18.9v77     C542,1400.5,541.7,1401.8,541.1,1403z"></path>
        <path class="st4" d="M602.6,1236.3c0,2.5-0.3,5-0.8,7.4c-0.5,2.4-1.6,4.6-3.1,6.5c-1.5,1.9-3.7,3.4-6.5,4.6     c-2.8,1.2-6.4,1.8-10.9,1.8c-4.7,0-8.5-0.6-11.3-1.8c-2.9-1.2-5.1-2.7-6.6-4.7c-1.5-2-2.5-4.1-3-6.5c-0.5-2.3-0.7-4.8-0.7-7.3     c0-5.6,1.4-10.3,4.3-14.2c2.9-3.9,8.6-5.8,17.3-5.8c4.3,0,7.9,0.5,10.7,1.5c2.8,1,5,2.4,6.6,4.2c1.6,1.8,2.7,3.9,3.2,6.3     C602.3,1230.8,602.6,1233.4,602.6,1236.3z M601.2,1398.8c0,1.4-0.3,2.8-0.9,4.1c-0.6,1.3-2.1,1.9-4.5,1.9h-29.7     c-2.3,0-3.9-0.5-4.7-1.6c-0.8-1.1-1.2-2.5-1.2-4.3v-121.5c0-2,0.4-3.5,1.2-4.5c0.8-1,2.4-1.5,4.7-1.5h29.7c2.3,0,3.8,0.7,4.5,2     c0.6,1.4,0.9,2.7,0.9,3.9V1398.8z"></path>
        <path class="st4" d="M660.8,1273.5c5.2-1.6,10.2-2.8,14.8-3.5c4.6-0.7,8.8-1.1,12.6-1.1c11.9,0,21.6,1.7,29,5     c7.4,3.3,13.1,8,17.2,14c4.1,6,6.8,13.2,8.3,21.5c1.4,8.3,2.2,17.4,2.2,27.3c0,10.6-0.8,20.3-2.4,29c-1.6,8.7-4.7,16.2-9.3,22.3     c-4.6,6.1-10.9,10.8-18.9,14.2c-8,3.3-18.4,5-31.2,5c-4.5,0-9.3-0.2-14.3-0.5c-5-0.4-10-0.9-14.8-1.5c-4.9-0.6-9.5-1.4-14-2.4     c-4.5-1-8.5-2.2-11.9-3.6c-3.4-1.4-5.6-3.2-6.6-5.4c-1-2.2-1.5-4.8-1.5-7.8v-165.8c0-1.8,0.4-3.2,1.2-4.3     c0.8-1.1,2.4-1.6,4.7-1.6h29.5c2.5,0,4.1,0.7,4.7,2c0.6,1.3,0.9,2.7,0.9,3.9V1273.5z M702.4,1338.9c0-6.7-0.4-12.2-1.2-16.6     c-0.8-4.4-2-7.9-3.7-10.5c-1.6-2.6-3.7-4.5-6.2-5.7c-2.5-1.2-5.5-1.8-9-1.8c-3.6,0-6.8,0.2-9.5,0.5c-2.7,0.4-6.7,1.2-12,2.4v62.6     c3.1,0.5,6.2,0.9,9.4,1.1c3.2,0.2,6,0.3,8.6,0.3c3.3,0,6.3-0.4,9.2-1.1c2.9-0.7,5.4-2.2,7.6-4.5c2.2-2.2,3.8-5.5,5-9.7     C701.8,1351.8,702.4,1346.1,702.4,1338.9z"></path>
        <path class="st4" d="M880.9,1403.3c-0.8,1-2.4,1.5-4.7,1.5h-29.5c-2.5,0-4.1-0.6-4.7-1.8c-0.6-1.2-0.9-2.5-0.9-3.9v-6.8     c-0.2,0-0.3,0-0.3-0.1c0-0.1-0.1-0.1-0.3-0.1c-6.1,4.7-13.1,8.3-20.9,10.9s-15,3.9-21.5,3.9c-9.5,0-17-1.4-22.3-4.3     c-5.3-2.9-9.3-6.7-11.9-11.5c-2.6-4.8-4.2-10.3-4.9-16.5c-0.6-6.2-0.9-12.7-0.9-19.6v-77.5c0-1.4,0.3-2.8,0.9-4     c0.6-1.3,2.2-1.9,4.7-1.9h29.7c2.2,0,3.6,0.5,4.5,1.6c0.8,1.1,1.2,2.5,1.2,4.3v70.7c0,6.8,1.2,12,3.6,15.5     c2.4,3.5,6.7,5.3,12.8,5.3c2.2,0,4.4-0.3,6.8-0.9c2.3-0.6,4.6-1.3,6.9-2.2c2.2-0.8,4.4-1.7,6.5-2.6c2.1-0.9,3.8-1.6,5.3-2.2     v-83.7c0-1.4,0.3-2.8,0.9-4c0.6-1.3,2.2-1.9,4.7-1.9h29.5c2.3,0,3.9,0.5,4.7,1.6c0.8,1.1,1.2,2.5,1.2,4.3v121.5     C882.1,1400.9,881.7,1402.3,880.9,1403.3z"></path>
        <path class="st4" d="M1006.7,1362.8c0,8.4-1.7,15.5-5,21.1c-3.3,5.7-7.8,10.2-13.4,13.6c-5.6,3.4-11.9,5.9-19,7.4     c-7.1,1.5-14.5,2.3-22.3,2.3c-3.2,0-6.8-0.1-10.5-0.4c-3.8-0.3-7.6-0.7-11.5-1.2c-3.9-0.5-7.6-1.2-11.1-1.9     c-3.5-0.7-6.6-1.5-9.3-2.4c-4.5-1.6-7.4-3.3-8.6-5c-1.3-1.7-1.4-4.3-0.5-7.9l3-12.9c0.5-2.5,1.3-4,2.4-4.6s3.1-0.5,6.2,0     c6.3,1.1,13.1,1.9,20.5,2.6c7.4,0.6,13.4,0.9,18.1,0.9c6.8,0,11.7-0.8,14.6-2.3c2.9-1.5,4.3-4.1,4.3-7.7c0-4-1.1-6.6-3.2-8     c-2.2-1.4-6.1-2.4-11.9-3.1c-7.4-1.1-14.3-2.3-20.7-3.8c-6.4-1.4-12-3.6-16.9-6.5c-4.9-2.9-8.7-6.8-11.5-11.6     c-2.8-4.9-4.2-11.3-4.2-19.2c0-7.2,1.4-13.5,4.2-18.9c2.8-5.4,6.6-9.9,11.4-13.5s10.6-6.3,17.3-8.1c6.7-1.8,14-2.7,21.9-2.7     c3.1,0,6.4,0.1,10.1,0.4c3.7,0.3,7.4,0.6,11.2,1.1c3.8,0.5,7.4,1,10.9,1.8s6.7,1.6,9.6,2.7c3.6,1.3,6.3,2.6,8,3.9     c1.7,1.4,2.1,3.8,1.2,7.2l-3,13.9c-0.7,2.5-1.5,4.1-2.3,4.6s-2.7,0.6-5.8,0.3c-3.1-0.4-6.4-0.8-10-1.2c-3.6-0.4-7.2-0.8-10.7-1.1     c-3.5-0.3-6.8-0.5-9.9-0.7c-3.1-0.2-5.7-0.3-7.8-0.3c-6.8-0.2-11.1,0.6-12.8,2.3c-1.7,1.7-2.6,4-2.6,6.9c0,3.4,1.6,5.6,4.7,6.6     s7.2,1.9,12.1,2.8c7,0.9,13.7,2,20.1,3.4c6.3,1.3,11.9,3.5,16.7,6.6c4.8,3.1,8.6,7.1,11.5,12.3     C1005.2,1347.5,1006.7,1354.3,1006.7,1362.8z"></path>
    </g>
    <g id="Group-7_00000067929487017280736170000015420606275253407386_" transform="translate(252.783728, 351.147271)">
        <path id="Combined-Shape_00000020387801657406628370000008839165578523035278_" class="st5" d="M526.4,420.7v188.8     c0,5.5-3.7,7.5-8.2,4.3L357.5,503.3H50.3c-5.5,0-10-4.5-10-10V41c0-5.5,4.5-10,10-10h466.1c5.5,0,10,4.5,10,10V420.7z      M343.6,228.1c0-33.5-27.1-60.7-60.7-60.7s-60.7,27.1-60.7,60.7c0,22.2,12.6,40.8,30.3,51.4v100.3c0,16.8,13.6,30.3,30.3,30.3     s30.3-13.6,30.3-30.3V279.5C331,269,343.6,250.4,343.6,228.1z"></path>
    </g>
    <g id="Group-7_00000013884621388168510600000012836380883070142374_" transform="translate(252.783728, 351.147271)">
        <linearGradient id="Combined-Shape_00000045621362915921303910000000687480500239384736_" gradientUnits="userSpaceOnUse" x1="1349.3202" y1="727.6014" x2="1349.3202" y2="726.6014" gradientTransform="matrix(486.1128 0 0 -584.2837 -655638.4375 425150.625)">
            <stop offset="0" style="stop-color:#FFFFFF"></stop>
            <stop offset="1" style="stop-color:#E8E8E8"></stop>
        </linearGradient>
        <path id="Combined-Shape_00000178192248165113663240000001698648611011453618_" style="fill-rule:evenodd;clip-rule:evenodd;fill:url(#Combined-Shape_00000045621362915921303910000000687480500239384736_);" d="M343.6,222.1c0-33.5-27.1-60.7-60.7-60.7s-60.7,27.1-60.7,60.7c0,22.2,12.6,40.8,30.3,51.4v100.3c0,16.8,13.6,30.3,30.3,30.3     s30.3-13.6,30.3-30.3V273.5C331,263,343.6,244.4,343.6,222.1z M526.4,414.7v188.8c0,5.5-3.7,7.5-8.2,4.3L357.5,497.3H50.3     c-5.5,0-10-4.5-10-10V35c0-5.5,4.5-10,10-10h466.1c5.5,0,10,4.5,10,10V414.7z"></path>
    </g>
</svg>

